<svg width="152" height="142" viewBox="0 0 152 142" fill="none" xmlns="http://www.w3.org/2000/svg">
<path d="M151.496 63.7842C151.496 59.5432 148.132 55.6734 141.498 52.2823C135.903 49.4222 127.97 46.9462 118.499 45.0937C116.562 37.5099 112.601 30.5946 107.041 25.086C98.8022 16.9105 87.778 12.4078 76 12.4078C64.222 12.4078 53.1978 16.9102 44.9594 25.0857C39.3983 30.5939 35.4374 37.5089 33.4996 45.0925C24.025 46.9468 16.0895 49.4237 10.4938 52.2863C3.86544 55.6764 0.503906 59.545 0.503906 63.7842C0.503906 70.4393 8.76065 75.6422 20.8668 79.3526L1.44866 118.335C0.982663 119.267 0.873502 120.338 1.14173 121.345C1.40996 122.352 2.03707 123.226 2.90498 123.803C3.77289 124.379 4.82172 124.619 5.85397 124.476C6.88623 124.333 7.83068 123.818 8.5095 123.028L42.1877 83.9125C49.0034 84.8951 56.1439 85.5629 63.1957 85.9094L70.616 136.824C70.8037 138.071 71.4314 139.211 72.3857 140.036C73.34 140.861 74.5579 141.318 75.8195 141.324C77.0786 141.33 78.2977 140.882 79.2526 140.061C80.2076 139.24 80.8343 138.103 81.0176 136.857L88.7727 85.9112C95.8332 85.5653 102.987 84.897 109.814 83.9119L143.491 123.028C144.169 123.818 145.114 124.333 146.146 124.476C147.178 124.619 148.227 124.379 149.095 123.803C149.963 123.226 150.59 122.352 150.858 121.345C151.126 120.338 151.017 119.267 150.551 118.335L131.131 79.3514C143.238 75.6407 151.496 70.4378 151.496 63.7842V63.7842ZM47.4886 27.6481C55.0473 20.1481 65.1746 16.0174 75.9937 16.0174C86.4797 15.9417 96.5767 19.9837 104.114 27.2744C111.651 34.5651 116.026 44.5223 116.298 55.005C105.377 58.4549 94.0569 60.4846 82.6172 61.0441V54.4747L88.4866 48.3114C90.446 46.2443 91.8592 43.7213 92.5985 40.9707C93.3378 38.2201 93.3798 35.3286 92.7207 32.5577C91.4626 27.0835 87.6784 22.6921 82.6088 20.8092C78.3472 19.2295 73.6606 19.2295 69.3991 20.8092C64.3297 22.6945 60.5507 27.0859 59.2925 32.5577C58.6312 35.3275 58.6709 38.2185 59.4079 40.9692C60.1449 43.7198 61.5561 46.2433 63.5137 48.3114L69.3828 54.4747V61.0441C57.9422 60.4845 46.6212 58.4543 35.6989 55.0038C35.958 44.7069 40.1814 34.9073 47.4886 27.6481V27.6481ZM76.3486 55.7561C76.3037 55.8033 76.2496 55.8409 76.1896 55.8666C76.1297 55.8923 76.0652 55.9055 76 55.9055C75.9348 55.9055 75.8703 55.8923 75.8104 55.8666C75.7504 55.8409 75.6963 55.8033 75.6514 55.7561L66.1467 45.8168C64.5999 44.1821 63.4848 42.1877 62.9022 40.0139C62.3196 37.8401 62.2878 35.5554 62.8098 33.3662C63.8096 29.0172 66.6692 25.6737 70.6554 24.1924C74.1042 22.9139 77.897 22.9139 81.3458 24.1924C85.332 25.6734 88.1916 29.0169 89.1914 33.3662C89.7134 35.5554 89.6816 37.8401 89.099 40.0139C88.5164 42.1877 87.4013 44.1821 85.8545 45.8168L76.3486 55.7561ZM79.0078 58.2489V61.1758C78.1055 61.1975 76.9872 61.2116 76 61.2116C75.0128 61.2116 73.8945 61.1975 72.9922 61.1758V58.2492L73.0187 58.251C73.4008 58.6576 73.8603 58.9839 74.3701 59.2108C74.8799 59.4377 75.4298 59.5606 75.9877 59.5724C77.0988 59.5724 78.1834 58.9687 78.951 58.3671H78.9783L79.0078 58.2489ZM5.7742 120.672C5.66947 120.797 5.52273 120.878 5.36192 120.901C5.20112 120.924 5.03748 120.887 4.90218 120.797C4.76688 120.707 4.66937 120.571 4.62823 120.413C4.58708 120.256 4.60517 120.09 4.67905 119.945L24.3965 80.3621C28.6074 81.49 33.1898 82.4555 37.9873 83.2577L5.7742 120.672ZM77.4474 136.313C77.3899 136.704 77.1934 137.06 76.894 137.318C76.5945 137.575 76.2123 137.716 75.8174 137.714C75.4219 137.712 75.04 137.569 74.7409 137.31C74.4417 137.051 74.245 136.694 74.1863 136.303L66.1587 81.2127C68.9169 78.9037 72.3992 77.6381 75.9963 77.6372C79.5934 77.6363 83.0762 78.9002 85.8356 81.2079L77.4474 136.313ZM147.321 119.944C147.394 120.089 147.413 120.255 147.371 120.412C147.33 120.569 147.233 120.706 147.098 120.796C146.962 120.886 146.799 120.923 146.638 120.9C146.477 120.877 146.331 120.796 146.226 120.672L114.012 83.2577C118.809 82.4552 123.391 81.49 127.602 80.3618L147.321 119.944ZM131.192 75.5592C120.354 79.0654 105.553 81.432 89.3249 82.2687L89.5511 80.7838C89.5949 80.4956 89.5683 80.2011 89.4735 79.9255C89.3787 79.6499 89.2185 79.4013 89.0067 79.2011C85.4906 75.8794 80.8369 74.0288 76 74.0288C71.1631 74.0288 66.5094 75.8794 62.9933 79.2011C62.7829 79.4 62.6234 79.6466 62.5283 79.9201C62.4332 80.1937 62.4054 80.4861 62.4471 80.7726L62.6652 82.2681C46.4531 81.4314 31.6642 79.0681 20.8292 75.5658C5.74201 70.6892 4.11328 65.7023 4.11328 63.7842C4.11328 58.2766 15.2332 52.5461 32.6938 48.935C32.2935 51.3743 32.0923 53.8421 32.0923 56.314C32.0925 56.6945 32.213 57.0652 32.4365 57.3731C32.66 57.681 32.9752 57.9104 33.3369 58.0285C47.1099 62.5318 61.5095 64.8244 76 64.821C90.4901 64.8246 104.889 62.5324 118.662 58.0297C119.024 57.9115 119.339 57.6821 119.562 57.3742C119.786 57.0663 119.906 56.6957 119.906 56.3152C119.906 53.8433 119.705 51.3755 119.305 48.9362C136.768 52.5461 147.887 58.2769 147.887 63.7842C147.887 67.8351 141.802 72.1267 131.192 75.5592Z" fill="#F4F4F4"/>
<path d="M25.0302 62.0812C23.7377 62.0826 22.4985 62.5967 21.5845 63.5106C20.6705 64.4245 20.1564 65.6637 20.1548 66.9562C20.1548 67.4349 20.345 67.8939 20.6834 68.2323C21.0219 68.5708 21.4809 68.7609 21.9595 68.7609C22.4382 68.7609 22.8972 68.5708 23.2356 68.2323C23.5741 67.8939 23.7642 67.4349 23.7642 66.9562C23.7693 66.6239 23.905 66.3069 24.1418 66.0737C24.3786 65.8405 24.6977 65.7098 25.0301 65.7098C25.3624 65.7098 25.6815 65.8405 25.9183 66.0737C26.1552 66.3069 26.2908 66.6239 26.2959 66.9562C26.2959 67.4349 26.486 67.8939 26.8245 68.2323C27.1629 68.5708 27.622 68.7609 28.1006 68.7609C28.5792 68.7609 29.0382 68.5708 29.3767 68.2323C29.7151 67.8939 29.9053 67.4349 29.9053 66.9562C29.9038 65.6638 29.3897 64.4246 28.4757 63.5107C27.5618 62.5968 26.3227 62.0827 25.0302 62.0812V62.0812Z" fill="#F4F4F4"/>
<path d="M36.6978 62.0812C35.4053 62.0827 34.1662 62.5968 33.2523 63.5107C32.3384 64.4246 31.8243 65.6638 31.8228 66.9562C31.8228 67.4349 32.0129 67.8939 32.3513 68.2323C32.6898 68.5708 33.1488 68.7609 33.6274 68.7609C34.1061 68.7609 34.5651 68.5708 34.9035 68.2323C35.242 67.8939 35.4321 67.4349 35.4321 66.9562C35.4373 66.6239 35.5729 66.3069 35.8097 66.0737C36.0465 65.8405 36.3656 65.7098 36.698 65.7098C37.0303 65.7098 37.3494 65.8405 37.5862 66.0737C37.8231 66.3069 37.9587 66.6239 37.9638 66.9562C37.9638 67.4349 38.1539 67.8939 38.4924 68.2323C38.8308 68.5708 39.2899 68.7609 39.7685 68.7609C40.2471 68.7609 40.7062 68.5708 41.0446 68.2323C41.383 67.8939 41.5732 67.4349 41.5732 66.9562C41.5717 65.6637 41.0575 64.4245 40.1435 63.5106C39.2295 62.5967 37.9904 62.0826 36.6978 62.0812V62.0812Z" fill="#F4F4F4"/>
<path d="M105.571 15.5125C106.721 15.9309 107.759 16.6104 108.602 17.4977C109.446 18.3849 110.072 19.4556 110.432 20.6257C110.542 20.9879 110.763 21.3062 111.064 21.5357C111.365 21.7652 111.73 21.8943 112.109 21.9047C112.125 21.9047 112.142 21.9047 112.158 21.9047C112.528 21.9046 112.89 21.7908 113.193 21.5787C113.496 21.3666 113.727 21.0663 113.854 20.7187C114.278 19.5679 114.962 18.5307 115.853 17.6883C116.745 16.8459 117.819 16.2212 118.992 15.8629C119.354 15.7528 119.673 15.5313 119.903 15.2299C120.133 14.9285 120.262 14.5624 120.271 14.1835C120.281 13.8046 120.172 13.4323 119.958 13.1191C119.745 12.806 119.438 12.5681 119.082 12.4391C117.931 12.0206 116.894 11.341 116.05 10.4538C115.207 9.56658 114.581 8.49587 114.221 7.32579C114.111 6.96351 113.89 6.64507 113.588 6.41558C113.287 6.18608 112.921 6.05714 112.543 6.04703C112.164 6.03692 111.792 6.14614 111.479 6.35923C111.166 6.57231 110.928 6.87847 110.799 7.23435C110.375 8.38501 109.69 9.42201 108.799 10.2643C107.908 11.1066 106.834 11.7313 105.661 12.0896C105.299 12.1996 104.98 12.4211 104.75 12.7225C104.52 13.0239 104.391 13.3901 104.381 13.7689C104.371 14.1478 104.481 14.5202 104.694 14.8333C104.908 15.1464 105.215 15.3843 105.571 15.5134V15.5125ZM112.391 11.673C113.024 12.5618 113.778 13.3571 114.633 14.0353C113.741 14.6681 112.943 15.4236 112.262 16.2794C111.629 15.3906 110.874 14.5954 110.019 13.9171C110.911 13.2842 111.709 12.5287 112.391 11.673V11.673Z" fill="#F4F4F4"/>
<path d="M112.584 123.086C111.379 122.868 110.242 122.374 109.26 121.642C108.279 120.91 107.481 119.96 106.929 118.868C106.759 118.529 106.488 118.253 106.152 118.077C105.817 117.902 105.434 117.836 105.06 117.89C104.685 117.944 104.336 118.114 104.064 118.376C103.791 118.639 103.608 118.981 103.54 119.353C103.317 120.559 102.818 121.697 102.082 122.678C101.345 123.659 100.392 124.457 99.2964 125.008C98.9576 125.178 98.6808 125.45 98.5053 125.786C98.3298 126.122 98.2645 126.504 98.3187 126.879C98.3729 127.255 98.5438 127.603 98.8071 127.876C99.0705 128.148 99.413 128.331 99.7861 128.398C100.991 128.616 102.128 129.11 103.109 129.842C104.091 130.574 104.889 131.524 105.441 132.617C105.611 132.955 105.882 133.232 106.218 133.407C106.553 133.582 106.935 133.648 107.31 133.594C107.685 133.54 108.033 133.37 108.306 133.107C108.578 132.845 108.762 132.503 108.829 132.131C109.053 130.925 109.552 129.787 110.288 128.806C111.024 127.825 111.978 127.027 113.073 126.476C113.412 126.306 113.689 126.034 113.865 125.698C114.04 125.362 114.106 124.98 114.052 124.604C113.997 124.229 113.826 123.881 113.563 123.608C113.299 123.335 112.957 123.153 112.584 123.086V123.086ZM106.511 128.023C105.737 127.253 104.858 126.597 103.901 126.073C104.673 125.298 105.333 124.419 105.86 123.46C106.634 124.23 107.512 124.886 108.469 125.41C107.697 126.185 107.038 127.064 106.511 128.023V128.023Z" fill="#F4F4F4"/>
<path d="M12.9325 22.8356C12.5698 22.9456 12.251 23.1671 12.0213 23.4685C11.7916 23.7699 11.6626 24.136 11.6526 24.5149C11.6426 24.8938 11.7521 25.2662 11.9657 25.5793C12.1792 25.8924 12.4859 26.1303 12.8423 26.2594C13.9927 26.6778 15.0304 27.3573 15.8738 28.2445C16.7173 29.1318 17.3435 30.2025 17.7032 31.3726C17.8136 31.7346 18.0349 32.0528 18.336 32.2821C18.6371 32.5113 19.0026 32.6402 19.381 32.6504H19.4303C19.8004 32.6503 20.1615 32.5365 20.4647 32.3244C20.7679 32.1122 20.9986 31.812 21.1255 31.4644C21.5492 30.3136 22.2335 29.2765 23.1247 28.4341C24.0159 27.5918 25.09 26.9671 26.2628 26.6089C26.6255 26.4988 26.9443 26.2773 27.174 25.9759C27.4038 25.6745 27.5328 25.3084 27.5428 24.9295C27.5527 24.5506 27.4432 24.1782 27.2297 23.8651C27.0161 23.552 26.7094 23.3141 26.3531 23.1851C25.2028 22.7665 24.1652 22.0869 23.3218 21.1997C22.4785 20.3124 21.8523 19.2418 21.4924 18.0718C21.3823 17.7096 21.161 17.3913 20.86 17.1618C20.559 16.9323 20.1934 16.8033 19.815 16.793C19.4366 16.7827 19.0646 16.8916 18.7515 17.1043C18.4384 17.3171 18.2002 17.6229 18.0704 17.9785C17.6468 19.1296 16.9625 20.1671 16.0712 21.0097C15.1798 21.8523 14.1056 22.4772 12.9325 22.8356ZM19.6622 22.4196C20.2953 23.3084 21.0503 24.1036 21.9051 24.7819C21.013 25.4147 20.2146 26.1702 19.5334 27.026C18.9004 26.1373 18.1454 25.3421 17.2905 24.664C18.1826 24.031 18.981 23.2754 19.6622 22.4196V22.4196Z" fill="#F4F4F4"/>
<path d="M12.7481 8.88682C13.4084 8.88682 14.0539 8.69101 14.603 8.32415C15.152 7.95729 15.5799 7.43586 15.8326 6.8258C16.0853 6.21574 16.1514 5.54444 16.0226 4.8968C15.8938 4.24916 15.5758 3.65427 15.1089 3.18735C14.642 2.72043 14.0471 2.40245 13.3994 2.27363C12.7518 2.1448 12.0805 2.21092 11.4704 2.46362C10.8604 2.71631 10.3389 3.14424 9.97209 3.69328C9.60523 4.24232 9.40942 4.88782 9.40942 5.54815C9.41078 6.4332 9.76296 7.28162 10.3888 7.90745C11.0146 8.53328 11.863 8.88547 12.7481 8.88682V8.88682ZM12.7481 5.27744C12.8016 5.27744 12.854 5.29332 12.8985 5.32306C12.943 5.35281 12.9777 5.39509 12.9982 5.44455C13.0187 5.49402 13.024 5.54845 13.0136 5.60096C13.0032 5.65347 12.9774 5.7017 12.9395 5.73956C12.9017 5.77742 12.8534 5.8032 12.8009 5.81365C12.7484 5.82409 12.694 5.81873 12.6445 5.79824C12.595 5.77775 12.5528 5.74306 12.523 5.69854C12.4933 5.65402 12.4774 5.60169 12.4774 5.54815C12.4774 5.47635 12.5059 5.4075 12.5567 5.35673C12.6074 5.30596 12.6763 5.27744 12.7481 5.27744V5.27744Z" fill="#F4F4F4"/>
<path d="M9.98483 15.9489C10.4025 15.9489 10.8108 15.825 11.1581 15.593C11.5054 15.3609 11.776 15.0311 11.9359 14.6452C12.0957 14.2593 12.1375 13.8347 12.056 13.4251C11.9746 13.0154 11.7734 12.6391 11.4781 12.3438C11.1827 12.0485 10.8065 11.8473 10.3968 11.7659C9.98717 11.6844 9.56256 11.7262 9.17669 11.886C8.79081 12.0459 8.46099 12.3165 8.22895 12.6638C7.9969 13.0111 7.87305 13.4194 7.87305 13.8371C7.8736 14.397 8.09627 14.9338 8.49219 15.3297C8.88811 15.7256 9.42492 15.9483 9.98483 15.9489Z" fill="#F4F4F4"/>
<path d="M39.4569 115.189C38.7078 114.708 37.7993 114.542 36.9284 114.726C36.0574 114.91 35.2943 115.431 34.8044 116.174C34.3212 116.915 34.1518 117.818 34.3336 118.684C34.5153 119.55 35.0333 120.309 35.7738 120.793C36.3339 121.145 36.9819 121.331 37.6432 121.33C38.7377 121.33 39.6055 120.793 40.5078 119.809C40.9547 119.05 41.0947 118.149 40.8994 117.29C40.704 116.432 40.188 115.68 39.4569 115.189V115.189ZM37.8002 118.137C37.7579 118.188 37.6982 118.223 37.6323 118.233C37.5665 118.243 37.4992 118.229 37.4433 118.192C37.3875 118.156 37.347 118.1 37.3296 118.036C37.3122 117.972 37.3191 117.903 37.349 117.844L37.8002 118.137V118.137Z" fill="#F4F4F4"/>
<path d="M44.2977 106.33C43.9475 106.102 43.5378 105.984 43.1204 105.99C42.7029 105.995 42.2965 106.124 41.9524 106.361C41.6083 106.597 41.3421 106.93 41.1873 107.318C41.0326 107.706 40.9962 108.13 41.0829 108.539C41.1696 108.947 41.3754 109.321 41.6743 109.612C41.9733 109.904 42.3519 110.1 42.7624 110.176C43.1728 110.252 43.5967 110.205 43.9803 110.041C44.364 109.876 44.6903 109.602 44.9179 109.252C45.2227 108.782 45.3285 108.21 45.212 107.663C45.0955 107.115 44.7663 106.636 44.2968 106.331L44.2977 106.33Z" fill="#F4F4F4"/>
<path d="M114.075 112.277C113.719 112.047 113.315 111.903 112.894 111.856C112.473 111.809 112.047 111.862 111.649 112.008C111.252 112.155 110.894 112.393 110.605 112.702C110.315 113.011 110.101 113.383 109.981 113.789C109.86 114.195 109.836 114.624 109.91 115.041C109.984 115.458 110.154 115.853 110.407 116.192C110.66 116.532 110.989 116.808 111.367 116.999C111.745 117.19 112.163 117.29 112.586 117.291C112.779 117.291 112.971 117.271 113.16 117.231C113.687 117.118 114.169 116.852 114.545 116.466C114.921 116.079 115.174 115.59 115.272 115.06C115.37 114.53 115.309 113.982 115.095 113.487C114.882 112.992 114.527 112.571 114.075 112.278V112.277Z" fill="#F4F4F4"/>
<path d="M116.759 106.636C116.408 106.409 115.998 106.291 115.581 106.296C115.163 106.302 114.757 106.432 114.413 106.668C114.069 106.905 113.802 107.239 113.648 107.627C113.493 108.014 113.457 108.44 113.544 108.848C113.632 109.256 113.838 109.63 114.137 109.921C114.436 110.212 114.815 110.408 115.226 110.484C115.637 110.56 116.061 110.512 116.444 110.347C116.828 110.182 117.154 109.907 117.381 109.557C117.534 109.324 117.639 109.064 117.69 108.791C117.741 108.518 117.738 108.238 117.68 107.966C117.622 107.695 117.511 107.437 117.353 107.209C117.195 106.981 116.993 106.786 116.759 106.636V106.636Z" fill="#F4F4F4"/>
<path d="M143.826 7.05387C144.225 7.23651 144.656 7.33882 145.094 7.35496C145.532 7.3711 145.97 7.30076 146.381 7.14794C146.792 6.99512 147.169 6.76282 147.49 6.4643C147.811 6.16579 148.071 5.8069 148.254 5.40814C148.436 5.00938 148.538 4.57854 148.555 4.14024C148.571 3.70193 148.5 3.26474 148.348 2.85362C148.195 2.44251 147.962 2.06552 147.664 1.74417C147.365 1.42283 147.007 1.16343 146.608 0.980791C145.802 0.611924 144.884 0.578086 144.053 0.886719C143.223 1.19535 142.549 1.82118 142.18 2.62652C141.812 3.43185 141.778 4.35074 142.086 5.18103C142.395 6.01132 143.021 6.685 143.826 7.05387ZM145.33 3.77234C145.366 3.78469 145.398 3.80436 145.426 3.83008C145.454 3.85581 145.476 3.88703 145.49 3.92173C145.505 3.95643 145.513 3.99385 145.512 4.03159C145.512 4.06932 145.503 4.10654 145.488 4.14086C145.472 4.17517 145.449 4.20582 145.421 4.23083C145.393 4.25585 145.359 4.27468 145.324 4.28612C145.288 4.29755 145.25 4.30135 145.212 4.29725C145.175 4.29315 145.138 4.28125 145.106 4.26231L145.33 3.77234Z" fill="#F4F4F4"/>
<path d="M141.136 19.4416C141.58 19.6448 142.081 19.6878 142.553 19.5631C143.026 19.4384 143.44 19.1539 143.726 18.7579C144.012 18.3619 144.152 17.879 144.122 17.3915C144.091 16.9039 143.893 16.4419 143.561 16.0842C143.228 15.7265 142.782 15.4952 142.298 15.4297C141.814 15.3642 141.322 15.4686 140.906 15.7251C140.49 15.9815 140.176 16.3742 140.018 16.8362C139.859 17.2981 139.866 17.8008 140.036 18.2586C140.132 18.5185 140.279 18.7567 140.468 18.9598C140.657 19.1628 140.884 19.3265 141.136 19.4416V19.4416Z" fill="#F4F4F4"/>
<path d="M132.036 44.327C133.786 44.7857 135.47 45.2729 137.043 45.7755C139.088 46.4297 140.997 47.1251 142.714 47.8428C142.933 47.9342 143.167 47.9817 143.404 47.9825C143.641 47.9832 143.876 47.9373 144.095 47.8474C144.315 47.7574 144.514 47.6251 144.682 47.4581C144.85 47.291 144.984 47.0925 145.075 46.8738C145.167 46.6552 145.214 46.4206 145.215 46.1836C145.216 45.9466 145.17 45.7118 145.08 45.4925C144.99 45.2733 144.858 45.0739 144.691 44.9057C144.524 44.7376 144.325 44.604 144.106 44.5126C142.293 43.7549 140.287 43.0231 138.142 42.3376C136.509 41.8158 134.762 41.3104 132.951 40.8337C132.488 40.7123 131.995 40.7799 131.582 41.0215C131.169 41.2631 130.869 41.6589 130.747 42.122C130.626 42.585 130.693 43.0773 130.935 43.4905C131.177 43.9038 131.572 44.2041 132.036 44.3255V44.327Z" fill="#F4F4F4"/>
<path d="M124.396 42.5798C124.857 42.6716 125.315 42.7648 125.769 42.8595C126.236 42.9521 126.72 42.8568 127.116 42.5944C127.513 42.332 127.79 41.9237 127.887 41.4583C127.984 40.9928 127.894 40.5077 127.635 40.1086C127.377 39.7094 126.971 39.4283 126.507 39.3265C126.042 39.2295 125.573 39.1339 125.1 39.0399C124.632 38.9498 124.147 39.0485 123.752 39.3146C123.356 39.5806 123.082 39.9923 122.989 40.4598C122.896 40.9273 122.992 41.4126 123.255 41.8098C123.519 42.207 123.929 42.4838 124.396 42.5798V42.5798Z" fill="#F4F4F4"/>
<path d="M52.0509 32.5962C51.6928 32.2786 51.2232 32.1163 50.7454 32.145C50.2677 32.1736 49.8209 32.3909 49.5033 32.749C47.2525 35.2876 45.3861 38.1425 43.9635 41.2226C43.8632 41.4378 43.8064 41.6708 43.7963 41.908C43.7862 42.1453 43.823 42.3822 43.9046 42.6052C43.9863 42.8282 44.1111 43.0329 44.272 43.2075C44.4329 43.3822 44.6267 43.5234 44.8423 43.623C45.0578 43.7226 45.2909 43.7787 45.5282 43.788C45.7655 43.7974 46.0023 43.7598 46.225 43.6775C46.4478 43.5952 46.6521 43.4697 46.8262 43.3083C47.0004 43.1468 47.141 42.9526 47.2399 42.7367C48.5143 39.9768 50.1864 37.4185 52.2028 35.1435C52.5204 34.7855 52.6828 34.3161 52.6543 33.8384C52.6258 33.3607 52.4088 32.9139 52.0509 32.5962Z" fill="#F4F4F4"/>
<path d="M54.7348 27.9488C54.2881 28.2812 53.8442 28.6286 53.4155 28.9811C53.23 29.1308 53.076 29.3158 52.9624 29.5254C52.8488 29.735 52.7778 29.9651 52.7536 30.2023C52.7294 30.4394 52.7524 30.6791 52.8213 30.9073C52.8903 31.1355 53.0038 31.3478 53.1552 31.532C53.3067 31.7161 53.4931 31.8684 53.7038 31.98C53.9144 32.0917 54.1451 32.1605 54.3825 32.1825C54.6199 32.2045 54.8593 32.1792 55.0869 32.1081C55.3145 32.0371 55.5257 31.9216 55.7084 31.7684C56.0922 31.4529 56.4904 31.1419 56.8896 30.8441C57.0826 30.7038 57.2458 30.5265 57.3698 30.3226C57.4939 30.1187 57.5762 29.8922 57.6121 29.6563C57.6481 29.4204 57.6368 29.1796 57.5791 28.9481C57.5213 28.7165 57.4182 28.4987 57.2758 28.3072C57.1333 28.1158 56.9542 27.9545 56.749 27.8327C56.5437 27.7109 56.3164 27.631 56.0801 27.5977C55.8438 27.5644 55.6032 27.5782 55.3723 27.6385C55.1413 27.6988 54.9247 27.8043 54.7348 27.9488V27.9488Z" fill="#F4F4F4"/>
<path d="M88.1696 34.2776C88.1217 33.887 87.9474 33.5228 87.6733 33.2404C87.3991 32.9581 87.0403 32.7731 86.6513 32.7135C86.4509 32.6835 81.7305 31.9998 79.0144 35.0398C76.4488 37.9119 76.9454 42.6646 77.01 43.1973C77.058 43.5879 77.2323 43.9521 77.5064 44.2344C77.7805 44.5168 78.1394 44.7018 78.5284 44.7613C78.9815 44.8221 79.4383 44.8509 79.8954 44.8477C81.5449 44.8477 84.3169 44.5018 86.1652 42.4348C88.7309 39.5626 88.2346 34.81 88.1696 34.2776V34.2776ZM83.4735 40.03C82.7516 40.8373 81.5557 41.1363 80.5526 41.219C80.6074 39.9681 80.8769 38.3721 81.7064 37.4436C82.4283 36.6366 83.623 36.3377 84.6273 36.2552C84.5723 37.5062 84.3016 39.1015 83.4735 40.03V40.03Z" fill="#F4F4F4"/>
<path d="M74.6826 43.1963C74.7475 42.6636 75.2438 37.911 72.6782 35.0388C69.963 31.9988 65.242 32.6819 65.0416 32.7126C64.6527 32.7722 64.2939 32.9572 64.0198 33.2396C63.7458 33.5219 63.5715 33.8861 63.5236 34.2767C63.4586 34.809 62.962 39.5617 65.5277 42.4338C67.3742 44.5011 70.1483 44.8467 71.7972 44.8467C72.2543 44.85 72.7111 44.8211 73.1642 44.7604C73.5532 44.7009 73.9121 44.5159 74.1862 44.2335C74.4603 43.9511 74.6346 43.5869 74.6826 43.1963V43.1963ZM68.2194 40.0303C67.3886 39.1003 67.1191 37.5167 67.065 36.2603C68.0275 36.3352 69.2411 36.6092 69.9865 37.4436C70.8172 38.3733 71.087 39.9569 71.1412 41.213C70.1775 41.1384 68.9644 40.8644 68.2194 40.0303V40.0303Z" fill="#F4F4F4"/>
<path d="M76.9044 49.043H75.0956C74.6169 49.043 74.1579 49.2331 73.8194 49.5715C73.481 49.91 73.2909 50.369 73.2909 50.8477C73.2909 51.3263 73.481 51.7853 73.8194 52.1238C74.1579 52.4622 74.6169 52.6523 75.0956 52.6523H76.9044C77.3831 52.6523 77.8421 52.4622 78.1806 52.1238C78.519 51.7853 78.7091 51.3263 78.7091 50.8477C78.7091 50.369 78.519 49.91 78.1806 49.5715C77.8421 49.2331 77.3831 49.043 76.9044 49.043Z" fill="#F4F4F4"/>
</svg>
