<svg id="Layer_1" height="512" viewBox="0 0 512 512" width="512" xmlns="http://www.w3.org/2000/svg" data-name="Layer 1"><path d="m95.67 210.92c0-104.2 79.081-189.86 180.33-199.926q-9.869-.981-20-.994c-110.64 0-200.33 89.95-200.33 200.92a200.963 200.963 0 0 0 109.97 179.36h40a200.963 200.963 0 0 1 -109.97-179.36z" fill="#d4e1f4"/><path d="m165.08 405.95a28.212 28.212 0 0 0 -28.21 28.22v67.83h30v-67.83a28.212 28.212 0 0 1 28.21-28.22z" fill="#d4e1f4"/><g fill="#0635c9"><path d="m182 474.165v27.835a6 6 0 0 0 12 0v-27.835a6 6 0 1 0 -12 0z"/><path d="m326 502v-25.835a6 6 0 1 0 -12 0v25.835a6 6 0 0 0 12 0z"/><path d="m256 454a11 11 0 1 0 11 11 11.013 11.013 0 0 0 -11-11zm0 12a1 1 0 1 1 1-1 1 1 0 0 1 -1 1z"/><path d="m256 486a11 11 0 1 0 11 11 11.013 11.013 0 0 0 -11-11zm0 12a1 1 0 1 1 1-1 1 1 0 0 1 -1 1z"/><path d="m404.378 205.448a6 6 0 0 0 10.472 5.852 98.359 98.359 0 0 0 -9.382-112.56 16.239 16.239 0 0 0 -20.025-4.1 16.047 16.047 0 0 0 -8.6 12 16.484 16.484 0 0 0 4.774 14.18 86.079 86.079 0 0 1 22.761 84.628zm-15.669-97.03a4.129 4.129 0 0 1 2.239-3.116 4.218 4.218 0 0 1 1.943-.474 4.386 4.386 0 0 1 3.365 1.6 86.276 86.276 0 0 1 19.877 50.353 98.166 98.166 0 0 0 -26.121-44.544 4.39 4.39 0 0 1 -1.303-3.819z"/><path d="m402.381 219.933a7 7 0 0 0 .292 13.993c.1 0 .192 0 .289-.006a7 7 0 1 0 -.581-13.987z"/></g><path d="m386.306 154.159c-9.785-42.562-39.2-76.695-78.519-91.307a148.973 148.973 0 0 0 -103.574 0c-39.323 14.612-68.641 48.745-78.426 91.307-10.241 44.548 1.928 90.457 32.866 122.807l51.347 53.885v59.149h12v-46.6l15.728 16.25a25.181 25.181 0 0 0 18.179 7.9 24.682 24.682 0 0 0 18.132-7.55h.21l15.751-16.6v46.6h12v-59.149l51.347-53.885c30.938-32.35 43.2-78.259 32.959-122.807zm-41.818 114.513-79.075 82.683a13.026 13.026 0 0 1 -18.826 0l-79.075-82.683c-28.137-29.422-39.364-71.225-30.03-111.824a120.278 120.278 0 0 1 24.4-49.8 109.217 109.217 0 0 1 46.511-32.948 136.965 136.965 0 0 1 95.214 0 109.217 109.217 0 0 1 46.513 32.951 120.278 120.278 0 0 1 24.4 49.8c9.332 40.596-1.895 82.399-30.032 111.821z" fill="#1ae5be"/><path d="m350.451 154.259c-1.769-.272-43.585-6.331-66.9 19.773-22.966 25.708-17.654 71.648-17.417 73.592a6 6 0 0 0 5.048 5.2 89.014 89.014 0 0 0 12.528.8c14.6 0 38.679-3 54.375-20.569 22.966-25.708 17.654-71.649 17.417-73.592a6 6 0 0 0 -5.051-5.204zm-21.319 70.8c-14.911 16.691-40.887 17-51.461 16.342-.641-11.694-.627-42.077 14.826-59.376 14.913-16.693 40.892-17 51.469-16.341.654 11.681.667 42.024-14.834 59.376z" fill="#1ae5be"/><path d="m245.869 247.624c.237-1.944 5.549-47.884-17.417-73.592-23.319-26.1-65.134-20.044-66.9-19.773a6 6 0 0 0 -5.048 5.2c-.237 1.943-5.549 47.884 17.417 73.592 15.7 17.571 39.773 20.569 54.375 20.569a89.223 89.223 0 0 0 12.528-.8 6 6 0 0 0 5.045-5.196zm-11.54-6.223c-10.581.655-36.554.347-51.461-16.341-15.455-17.3-15.467-47.685-14.827-59.375 10.581-.655 36.554-.347 51.462 16.341 15.454 17.3 15.467 47.685 14.826 59.374z" fill="#1ae5be"/><path d="m263.524 309h-15.048a6 6 0 0 0 0 12h15.048a6 6 0 0 0 0-12z" fill="#1ae5be"/><path d="m190.316 116.127a5.978 5.978 0 0 0 3.8-1.358 109.683 109.683 0 0 1 23.012-14.482c2.641-1.236 5.378-2.388 8.133-3.423a6 6 0 0 0 -4.22-11.233c-3.048 1.144-6.076 2.419-9 3.788a121.77 121.77 0 0 0 -25.53 16.066 6 6 0 0 0 3.806 10.642z" fill="#1ae5be"/><path d="m167.334 135.125a6 6 0 0 0 8.4-1.181c1.718-2.281 3.54-4.519 5.415-6.651a6 6 0 1 0 -9.011-7.924c-2.074 2.359-4.089 4.833-5.989 7.354a6 6 0 0 0 1.185 8.402z" fill="#1ae5be"/><path d="m160 393.9v6.492a33.831 33.831 0 0 0 -29 33.777v67.831a6 6 0 0 0 12 0v-67.835a22.188 22.188 0 0 1 18.356-21.884 5.667 5.667 0 0 0 .721.649 160.683 160.683 0 0 0 183.813 2.221 5.876 5.876 0 0 0 2.092-2.588 22.223 22.223 0 0 1 17.018 21.602v67.835a6 6 0 0 0 12 0v-67.835a33.866 33.866 0 0 0 -29-33.765v-4.444a206.891 206.891 0 0 0 114.234-185.038c0-114.095-92.511-206.918-206.28-206.918s-206.3 92.823-206.3 206.918a207.2 207.2 0 0 0 110.346 182.982zm80 6.785v29.4c-3-.276-6-.626-8-1.037v-29.328c2 .38 5 .706 8 .961zm-20 25.915c-3-.641-5-1.337-8-2.118v-28.95c3 .718 5 1.353 8 1.943zm-20-6.365c-3-1.052-5-2.184-8-3.388v-28.3c3 1.1 5 2.125 8 3.085zm-20-9.724a42.415 42.415 0 0 1 -8-5.51v-27.158a42.928 42.928 0 0 0 8 4.957zm72 20.348v-29.454c1 .032 2.239.067 3.566.067.948 0 1.434-.03 2.434-.046v29.457c-1 .018-1.486.051-2.434.051-1.327 0-2.566-.034-3.566-.074zm64-41.073v28.425c-3 1.135-5 2.214-8 3.2v-28.706c3-.905 5-1.882 8-2.918zm-20 35.554c-2 .636-5 1.219-7 1.747v-29.166c2-.487 5-1.02 7-1.606zm-19 4.024c-2 .329-4 .594-7 .82v-29.404c3-.209 5-.457 7-.761zm59-22.3a42.343 42.343 0 0 1 -8 5.167v-27.877a43.207 43.207 0 0 0 8-4.66zm-80-391.064c107.151 0 194.326 87.44 194.326 194.918a195.17 195.17 0 0 1 -102.326 171.506v-12.865a6.058 6.058 0 0 0 .048-1.266l-.047-.64a5.936 5.936 0 0 0 -9.162-3.7 148.7 148.7 0 0 1 -168.662-1.422 6 6 0 0 0 -9.426.44l.08.142c-.983 1.38-1.831 3.034-.831 4.577v12.5a194.829 194.829 0 0 1 -98.235-169.272c0-107.478 87.084-194.918 194.235-194.918z" fill="#0635c9"/></svg>