<svg height="512" viewBox="0 0 60 60" width="512" xmlns="http://www.w3.org/2000/svg"><g id="Page-1" fill="none" fill-rule="evenodd"><g id="006---Silly" transform="translate(-1 -1)"><path id="Shape" d="m60 35c-.0152771 4.6258149-1.4652527 9.1329682-4.15 12.9-2.2919836-1.5712058-5.3629417-1.3630241-7.4219048.5031344-2.0589631 1.8661584-2.5671115 4.9019299-1.2280952 7.3368656-4.930222 2.8228331-10.5189418 4.2924594-16.2 4.26-5.6810582.0324594-11.269778-1.4371669-16.2-4.26 1.3390163-2.4349357.8308679-5.4707072-1.2280952-7.3368656-2.0589631-1.8661585-5.12992122-2.0743402-7.4219048-.5031344-2.68474729-3.7670318-4.13472295-8.2741851-4.15-12.9 0-6.9 3.24-15.16 8.49-21.68v-.01c.85-1.04 1.74-2.04 2.67-2.97 4.92-4.95 11.11-8.34 17.84-8.34s12.92 3.39 17.84 8.34c.93.93 1.82 1.93 2.67 2.97 5.24 6.53 8.49 14.78 8.49 21.69z" fill="#e8edfc" fill-rule="nonzero"/><path id="Shape" d="m51.51 13.31c-.85-1.04-1.74-2.04-2.67-2.97-4.92-4.95-11.11-8.34-17.84-8.34-.5 0-1 .025-1.5.062 6.148.46 11.788 3.7 16.34 8.278.93.93 1.82 1.93 2.67 2.97 5.24 6.53 8.49 14.78 8.49 21.69-.0135927 4.2369528-1.2387769 8.3816214-3.531 11.945.854017.1401604 1.6668303.4661733 2.381.955 2.6847473-3.7670318 4.1347229-8.2741851 4.15-12.9 0-6.91-3.25-15.16-8.49-21.69z" fill="#cad9fc" fill-rule="nonzero"/><path id="Shape" d="m14.8 55.74c-3.4139761-1.9603347-6.36451615-4.6345814-8.65-7.84 2.29198358-1.5712058 5.3629417-1.3630241 7.4219048.5031344 2.0589631 1.8661584 2.5671115 4.9019299 1.2280952 7.3368656z" fill="#e8edfc" fill-rule="nonzero"/><path id="Shape" d="m55.85 47.9c-2.2854839 3.2054186-5.2360239 5.8796653-8.65 7.84-1.3390163-2.4349357-.8308679-5.4707072 1.2280952-7.3368656 2.0589631-1.8661585 5.1299212-2.0743402 7.4219048-.5031344z" fill="#e8edfc" fill-rule="nonzero"/><path id="Shape" d="m50.973 47.046c.6707617.1728013 1.3060416.4618419 1.877.854-1.7139468 2.4177229-3.8183699 4.5332984-6.227 6.26.1165301.5513365.3108049 1.0833196.577 1.58 3.4139761-1.9603347 6.3645161-4.6345814 8.65-7.84-1.4248165-.9786493-3.2044201-1.2902715-4.877-.854z" fill="#cad9fc" fill-rule="nonzero"/><path id="Shape" d="m10.49 13.32v-.01" stroke="#428dff" stroke-linecap="round" stroke-linejoin="round" stroke-width="2"/><g fill-rule="nonzero"><path id="Shape" d="m13.16 10.34c-.93.93-1.82 1.93-2.67 2.97l-2.25-2.25c-.68415329-.647863-1.57872272-1.0277-2.52-1.07-.7919015-.06064464-1.54759064-.35665191-2.17-.85-.7898011-.60214636-1.32218786-1.48112049-1.49-2.46-.22401223-1.28844247.19595979-2.60502538 1.12467096-3.52576479.92871118-.9207394 2.24886555-1.32934617 3.53532904-1.09423521.97628806.17987033 1.84815358.72299967 2.44 1.52.48124328.61228271.77008858 1.35353633.83 2.13.040281.94468649.420234 1.84307989 1.07 2.53z" fill="#a4c2f7"/><path id="Shape" d="m59.94 6.68c-.1678121.97887951-.7001989 1.85785364-1.49 2.46-.6224094.49334809-1.3780985.78935536-2.17.85-.9412773.0423-1.8358467.422137-2.52 1.07l-2.25 2.25c-.85-1.04-1.74-2.04-2.67-2.97l2.1-2.1c.649766-.68692011 1.029719-1.58531351 1.07-2.53.0599114-.77646367.3487567-1.51771729.83-2.13.5918464-.79700033 1.4637119-1.34012967 2.44-1.52 1.2864635-.23511096 2.6066179.17349581 3.535329 1.09423521.9287112.92073941 1.3486832 2.23732232 1.124671 3.52576479z" fill="#a4c2f7"/><path id="Shape" d="m55.28 2.06c-.2680542.05099418-.5296449.13148365-.78.24 1.7425589.70406794 2.7584986 2.527763 2.44 4.38-.1678121.97887951-.7001989 1.85785364-1.49 2.46-.6224094.49334809-1.3780985.78935536-2.17.85-.9412773.0423-1.8358467.422137-2.52 1.07l-.637.637c.4726667.524.935 1.0616667 1.387 1.613l2.25-2.25c.6841533-.647863 1.5787227-1.0277 2.52-1.07.7919015-.06064464 1.5475906-.35665191 2.17-.85.7898011-.60214636 1.3221879-1.48112049 1.49-2.46.2240122-1.28844247-.1959598-2.60502538-1.124671-3.52576479-.9287111-.9207394-2.2488655-1.32934617-3.535329-1.09423521z" fill="#7facfa"/><circle id="Oval" cx="18" cy="23" fill="#fff" r="6"/><path id="Shape" d="m18 17c-.5064496.0029108-1.0104803.0701149-1.5.2 2.6479943.6813094 4.498931 3.0687622 4.498931 5.803s-1.8509367 5.1216906-4.498931 5.803c2.2531797.5872914 4.6426897-.1820582 6.1299399-1.9736543 1.4872502-1.7915962 1.8036517-4.2818866.8116819-6.3884777s-3.1131667-3.4490442-5.4416218-3.443868z" fill="#e8edfc"/><circle id="Oval" cx="18" cy="22" fill="#a4c2f7" r="2"/><circle id="Oval" cx="44" cy="23" fill="#fff" r="6"/><path id="Shape" d="m44 17c-.5064496.0029108-1.0104803.0701149-1.5.2 2.6479943.6813094 4.498931 3.0687622 4.498931 5.803s-1.8509367 5.1216906-4.498931 5.803c2.2531797.5872914 4.6426897-.1820582 6.1299399-1.9736543 1.4872502-1.7915962 1.8036517-4.2818866.8116819-6.3884777s-3.1131667-3.4490442-5.4416218-3.443868z" fill="#e8edfc"/><circle id="Oval" cx="44" cy="22" fill="#a4c2f7" r="2"/><circle id="Oval" cx="31" cy="12.326" fill="#fff" r="6"/><path id="Shape" d="m31 6.326c-.5064496.00291083-1.0104803.07011491-1.5.2 2.6489467.68060804 4.5008757 3.0685145 4.5008757 5.8035s-1.851929 5.122892-4.5008757 5.8035c2.2526604.5855762 4.6407436-.1844776 6.1269921-1.9756905 1.4862485-1.791213 1.8024796-4.2803738.8113393-6.38632237-.9911403-2.10594855-3.1108081-3.44868175-5.4383314-3.44498713z" fill="#e8edfc"/><circle id="Oval" cx="31" cy="11.326" fill="#a4c2f7" r="2"/><path id="Shape" d="m39.54 48.67c-.9718285.4246866-2.0727289.4450924-3.0596281.0567119-.9868992-.3883804-1.7786262-1.1536035-2.2003719-2.1267119l-4.03-9.25c.49-.02.75-.02.75-.02s3.23 0 8.18.49l2.43 5.59c.4246866.9718285.4450924 2.0727289.0567119 3.0596281-.3883804.9868992-1.1536035 1.7786262-2.1267119 2.2003719z" fill="#a4c2f7"/><path id="Shape" d="m41.61 43.41-2.43-5.59c-4.95-.49-8.18-.49-8.18-.49s-.26 0-.75.02l.019.043c1.424.062 3.455.184 5.911.427l2.43 5.59c.4246866.9718285.4450924 2.0727289.0567119 3.0596281-.3883804.9868992-1.1536035 1.7786262-2.1267119 2.2003719-.035.015-.071.02-.106.034 1.5047172.6108755 3.2294316.2513515 4.3647516-.9098511 1.1353201-1.1612025 1.4558817-2.8935816.8112484-4.3841489z" fill="#7facfa"/><circle id="Oval" cx="25" cy="52" fill="#e8edfc" r="3"/><circle id="Oval" cx="19" cy="44" fill="#e8edfc" r="2"/><path id="Shape" d="m31 60c.5033333 0 1.0033333-.0116667 1.5-.035-14.852-.665-27.5-11.165-27.5-24.965 0-11.908 8.49-21.588 8.49-21.69l-2.25-2.25c-.6841533-.647863-1.57872272-1.0277-2.52-1.07-1.84270897-.14929359-3.3454279-1.53728861-3.64028529-3.36237053-.29485739-1.82508193.69433521-3.61566629 2.39628529-4.33762947-.24304079-.10350631-.49649373-.18061501-.756-.23-1.44889858-.24552545-2.91575643.32320716-3.82045249 1.48127231-.90469605 1.15806515-1.1015299 2.71895757-.5126566 4.06536691.58887329 1.34640933 1.86861627 2.26149765 3.33310909 2.38336078.94127728.0423 1.83584671.422137 2.52 1.07l2.25 2.25c0 .102-8.49 9.782-8.49 21.69 0 14.264 13.508 25 29 25z" fill="#fff"/><path id="Shape" d="m2.26 26.84 1.92.56c-.74447138 2.4662177-1.14162427 5.0241516-1.18 7.6h-2c.03789177-2.7654093.46199175-5.5119616 1.26-8.16z" fill="#fff"/><path id="Shape" d="m25 56c2.209139 0 4-1.790861 4-4s-1.790861-4-4-4-4 1.790861-4 4 1.790861 4 4 4zm0-6c1.1045695 0 2 .8954305 2 2s-.8954305 2-2 2-2-.8954305-2-2 .8954305-2 2-2z" fill="#428dff"/><path id="Shape" d="m19 41c-1.6568542 0-3 1.3431458-3 3s1.3431458 3 3 3 3-1.3431458 3-3-1.3431458-3-3-3zm0 4c-.5522847 0-1-.4477153-1-1s.4477153-1 1-1 1 .4477153 1 1-.4477153 1-1 1z" fill="#428dff"/><path id="Shape" d="m2.353 32.015c-.55228475.0027614-1.00223858-.4427153-1.005-.995s.44271525-1.0022386.995-1.005h.01c.55228475 0 1 .4477153 1 1s-.44771525 1-1 1z" fill="#428dff"/><path id="Shape" d="m54.47 11.765c.5148737-.4754793 1.1826662-.7513915 1.883-.778 2.2867551-.1852047 4.1640198-1.88323301 4.577-4.14.400992-2.27035957-.8065408-4.51964045-2.9204179-5.43988542s-4.5830036-.27154307-5.9715821 1.56888542c-.5907527.77048055-.9463416 1.69521994-1.024 2.663-.0274594.70300883-.3035073 1.37346154-.779 1.892l-1.46 1.459c-5.065-4.797-11.275-7.99-17.775-7.99-7.755 0-13.876 4.161-17.832 7.934l-1.4-1.4c-.4756469-.51804221-.7517379-1.1882451-.779-1.891-.0777753-.96948318-.4344562-1.89574227-1.027-2.667-1.17067538-1.54909549-3.13404224-2.27786389-5.03193578-1.86776904-1.89789355.41009486-3.38520481 1.88448219-3.81184737 3.77872447-.42664255 1.89424228.28496339 3.86389449 1.82378315 5.04804457.77891986.6084723 1.71964624.9743297 2.705 1.052.70033385.0266085 1.36812631.3025207 1.883.778l1.64 1.635c-3.10689901 4.0190688-5.44909826 8.5746633-6.91 13.44-.0773466.2567925-.04742387.5339606.08294774.7683281s.35008231.4059623.60905226.4756719c.52680323.1404008 1.07005053-.1621897 1.228-.684 1.47299601-4.8999699 3.88024392-9.4686134 7.089-13.454l-.007-.006c.01-.012.023-.022.032-.034.856-1.046 1.722-2.009 2.575-2.862 3.649-3.669 9.581-8.044 17.131-8.044 15.977 0 28 19.413 28 32-.0146812 4.1092969-1.2214766 8.1260428-3.474 11.563-2.5714372-1.2629759-5.6534456-.8269619-7.7736364 1.0997422s-2.8482526 4.9530567-1.8363636 7.6332578c-9.3307902 4.938728-20.5012098 4.938728-29.832 0 1.011889-2.6802011.2838272-5.7065537-1.8363636-7.6332578s-5.20219919-2.3627181-7.7736364-1.0997422c-2.25252339-3.4369572-3.4593188-7.4537031-3.474-11.563 0-.5522847-.44771525-1-1-1s-1 .4477153-1 1c0 14.336 13.458 26 30 26s30-11.664 30-26c0-7.1-3.175-15.1-8.2-21.564zm-44.037.074-1.489-1.488c-.8504496-.82122287-1.97103143-1.30436713-3.152-1.359-.59485594-.04683352-1.1621358-.27040238-1.629-.642-.58862095-.44842495-.98814922-1.10086888-1.12-1.829-.1690465-.96904945.14673482-1.95949819.84548664-2.65187053.69875181-.69237234 1.69205507-.99905648 2.65951336-.82112947.72655847.13652846 1.37537317.54087778 1.818 1.133.36071189.46289159.57829566 1.02110173.626 1.606.05591088 1.1824396.53876355 2.30447694 1.359 3.158l1.415 1.414c-.444.47-.8883333.9633333-1.333 1.48zm-2.78 36.389c1.77750443-.7354358 3.8196262-.3813802 5.2458152.9095005 1.4261891 1.2908806 1.9813826 3.2877223 1.4261848 5.1294995-2.5548146-1.6142317-4.81192809-3.6572036-6.672-6.039zm40.022 6.039c-.554675-1.8416393.0007476-3.8380591 1.4268332-5.1286325 1.4260857-1.2905733 3.4678687-1.6445623 5.2451668-.9093675-1.8603492 2.3812611-4.1174245 4.4238601-6.672 6.038zm3.974-45.322c.8202364-.85352306 1.3030891-1.9755604 1.359-3.158.0482181-.58295745.2658095-1.13910174.626-1.6.4422504-.59271685 1.0911814-.99749564 1.818-1.134.9674583-.17792701 1.9607615.12875713 2.6595134.82112947.6987518.69237234 1.0145331 1.68282108.8454866 2.65187053-.1318508.72813112-.531379 1.38057505-1.12 1.829-.4668642.37159762-1.0341441.59516648-1.629.642-1.1809686.05463287-2.3015504.53777713-3.152 1.359l-1.533 1.532c-.434-.504-.879-.9963333-1.335-1.477z" fill="#428dff"/><path id="Shape" d="m18 16c-3.8659932 0-7 3.1340068-7 7s3.1340068 7 7 7 7-3.1340068 7-7c-.0044086-3.8641657-3.1358343-6.9955914-7-7zm0 12c-2.7614237 0-5-2.2385763-5-5s2.2385763-5 5-5 5 2.2385763 5 5c-.0033061 2.7600532-2.2399468 4.9966939-5 5z" fill="#428dff"/><path id="Shape" d="m18 19c-1.6568542 0-3 1.3431458-3 3s1.3431458 3 3 3 3-1.3431458 3-3-1.3431458-3-3-3zm0 4c-.5522847 0-1-.4477153-1-1s.4477153-1 1-1 1 .4477153 1 1-.4477153 1-1 1z" fill="#428dff"/><path id="Shape" d="m44 30c3.8659932 0 7-3.1340068 7-7s-3.1340068-7-7-7-7 3.1340068-7 7c.0044086 3.8641657 3.1358343 6.9955914 7 7zm0-12c2.7614237 0 5 2.2385763 5 5s-2.2385763 5-5 5-5-2.2385763-5-5c.0033061-2.7600532 2.2399468-4.9966939 5-5z" fill="#428dff"/><path id="Shape" d="m44 25c1.6568542 0 3-1.3431458 3-3s-1.3431458-3-3-3-3 1.3431458-3 3 1.3431458 3 3 3zm0-4c.5522847 0 1 .4477153 1 1s-.4477153 1-1 1-1-.4477153-1-1 .4477153-1 1-1z" fill="#428dff"/><path id="Shape" d="m31 5.327c-3.8659932 0-7 3.13400675-7 7 0 3.8659932 3.1340068 7 7 7s7-3.1340068 7-7c-.0044086-3.86416566-3.1358343-6.99559136-7-7zm0 12c-2.7614237 0-5-2.2385763-5-5 0-2.76142375 2.2385763-5 5-5s5 2.23857625 5 5c-.0033061 2.7600532-2.2399468 4.9966939-5 5z" fill="#428dff"/><path id="Shape" d="m31 8.327c-1.6568542 0-3 1.34314575-3 3 0 1.6568542 1.3431458 3 3 3s3-1.3431458 3-3c0-1.65685425-1.3431458-3-3-3zm0 4c-.5522847 0-1-.4477153-1-1s.4477153-1 1-1 1 .4477153 1 1-.4477153 1-1 1z" fill="#428dff"/><path id="Shape" d="m9.852 31.338c-.2623006.0392489-.49826587.1810904-.65598457.3943201s-.2242709.4803803-.18501543.7426799c.29308443 2.2005438 1.481469 4.1825328 3.284426 5.4777692 1.802957 1.2952365 4.0605853 1.7888481 6.239574 1.3642308 5-.68 9.044-.893 11.064-.96l3.763 8.643c.6748061 1.6943545 2.2186316 2.8868839 4.0284953 3.1118146 1.8098638.2249307 3.5986315-.5534223 4.6676534-2.0310531s1.2486981-3.4201137.4688513-5.0687615l-1.749-4.023c.8593333.0973333 1.755.2083333 2.687.333.5026425.0701466 1.0094876.1058964 1.517.107 4.041053.0385382 7.4762663-2.9427654 8.007-6.949.071392-.5401122-.3027057-1.0379855-.8413495-1.119722-.5386438-.0817366-1.0435995.2827447-1.1356505.819722-.2382974 1.6704211-1.1528764 3.169403-2.5292683 4.1454346-1.3763918.9760317-3.0935249 1.3432583-4.7487317 1.0155654-4.2197362-.5999006-8.4725025-.9385456-12.734-1.014-4.2613941.0737975-8.51416.4107726-12.734 1.009-1.6545369.3268122-3.370681-.0404055-4.7466018-1.0156699s-2.2907917-2.4729328-2.5303982-4.1423301c-.0374579-.2630835-.1789027-.5001391-.392637-.6580431-.2137344-.157904-.4818861-.2234527-.744363-.1819569zm30.84 12.462c.489167.9909673.3939056 2.1706252-.247934 3.0702598s-1.7263093 1.3735471-2.8225163 1.2334376c-1.0962071-.1401095-2.026617-.8715498-2.4215497-1.9036974l-3.426-7.86c1.155.027 3.545.117 6.721.41z" fill="#428dff"/><circle id="Oval" cx="29" cy="30" fill="#428dff" r="1"/><circle id="Oval" cx="33" cy="30" fill="#428dff" r="1"/></g></g></g></svg>