<svg id="Capa_1" enable-background="new 0 0 512 512" height="512" viewBox="0 0 512 512" width="512" xmlns="http://www.w3.org/2000/svg"><g><g><g><path d="m207.804 329.61v116.458h-138.267c-34.137 0-61.811 27.674-61.811 61.811v4.121h248.274l10-84-10-98.39z" fill="#ffb655"/><path d="m504.274 507.879c0-34.137-27.674-61.811-61.811-61.811h-138.267v-116.458h-48.196v182.39h248.274z" fill="#ff8859"/></g><path d="m167.366 0c-43.815 0-77.506 38.753-71.412 82.142l23.272 165.696c9.577 68.188 67.916 118.906 136.774 118.906l10-184.58-10-182.164z" fill="#ffe477"/><path d="m344.634 0h-88.634v366.744c68.857 0 127.197-50.718 136.774-118.906l23.272-165.696c6.094-43.389-27.597-82.142-71.412-82.142z" fill="#ffb655"/></g><g><g><path d="m193.982 117.295h-31.072v5.028c0 34.229 27.748 61.977 61.977 61.977v-36.099c.001-17.069-13.836-30.906-30.905-30.906z" fill="#fff5f5"/><path d="m318.018 117.295h31.072v5.028c0 34.229-27.748 61.977-61.977 61.977v-36.099c-.001-17.069 13.836-30.906 30.905-30.906z" fill="#ebe1dc"/></g><g><path d="m209.888 230.761h30v48.075h-30z" fill="#ffb655"/></g><g><path d="m272.112 230.761h30v48.075h-30z" fill="#ff8859"/></g></g></g></svg>